<svg width="54" height="54" viewBox="0 0 54 54" fill="none" xmlns="http://www.w3.org/2000/svg">
<path d="M0.333496 26.9999C0.333496 19.9275 3.14301 13.1447 8.14398 8.14374C13.145 3.14277 19.9277 0.333252 27.0002 0.333252C30.5021 0.333252 33.9697 1.02301 37.2051 2.36313C40.4404 3.70326 43.3801 5.66751 45.8563 8.14374C48.3326 10.62 50.2968 13.5597 51.637 16.795C52.9771 20.0304 53.6668 23.498 53.6668 26.9999C53.6668 34.0724 50.8573 40.8551 45.8563 45.8561C40.8554 50.8571 34.0726 53.6666 27.0002 53.6666C23.4982 53.6666 20.0306 52.9768 16.7953 51.6367C13.5599 50.2966 10.6202 48.3323 8.14398 45.8561C3.14301 40.8551 0.333496 34.0724 0.333496 26.9999ZM43.0002 24.3333H21.6668L31.0002 14.9999L27.2135 11.2133L11.4268 26.9999L27.2135 42.7866L31.0002 38.9999L21.6668 29.6666H43.0002V24.3333Z" fill="black"/>
</svg>
