<svg width="54" height="54" viewBox="0 0 54 54" fill="none" xmlns="http://www.w3.org/2000/svg">
<path d="M53.6663 26.9999C53.6663 34.0724 50.8568 40.8551 45.8559 45.8561C40.8549 50.8571 34.0721 53.6666 26.9997 53.6666C23.4978 53.6666 20.0301 52.9768 16.7948 51.6367C13.5594 50.2966 10.6197 48.3323 8.14349 45.8561C3.14252 40.8551 0.333008 34.0724 0.333008 26.9999C0.333008 19.9275 3.14252 13.1447 8.14349 8.14374C13.1445 3.14277 19.9272 0.333252 26.9997 0.333252C30.5016 0.333252 33.9692 1.02301 37.2046 2.36313C40.4399 3.70326 43.3796 5.66751 45.8559 8.14374C48.3321 10.62 50.2963 13.5597 51.6365 16.795C52.9766 20.0304 53.6663 23.498 53.6663 26.9999ZM10.9997 29.6666H32.333L22.9997 38.9999L26.7863 42.7866L42.573 26.9999L26.7863 11.2133L22.9997 14.9999L32.333 24.3333H10.9997V29.6666Z" fill="#111111"/>
</svg>
